<svg xmlns="http://www.w3.org/2000/svg" xmlns:xlink="http://www.w3.org/1999/xlink" width="500" zoomAndPan="magnify" viewBox="0 0 375 374.999991" height="500" preserveAspectRatio="xMidYMid meet" version="1.0"><defs><clipPath id="c3f7937504"><path d="M 59 33 L 152 33 L 152 104 L 59 104 Z M 59 33 " clip-rule="nonzero"/></clipPath><clipPath id="f51db0dc03"><path d="M 48.691406 58.535156 L 149.375 26.199219 L 167.722656 83.328125 L 67.035156 115.660156 Z M 48.691406 58.535156 " clip-rule="nonzero"/></clipPath><clipPath id="86787d7a63"><path d="M 48.691406 58.535156 L 149.375 26.199219 L 167.722656 83.328125 L 67.035156 115.660156 Z M 48.691406 58.535156 " clip-rule="nonzero"/></clipPath><clipPath id="9002b94688"><path d="M 63 39 L 143 39 L 143 99 L 63 99 Z M 63 39 " clip-rule="nonzero"/></clipPath><clipPath id="d73d6ffc89"><path d="M 48.691406 58.535156 L 149.375 26.199219 L 167.722656 83.328125 L 67.035156 115.660156 Z M 48.691406 58.535156 " clip-rule="nonzero"/></clipPath><clipPath id="57653328c6"><path d="M 48.691406 58.535156 L 149.375 26.199219 L 167.722656 83.328125 L 67.035156 115.660156 Z M 48.691406 58.535156 " clip-rule="nonzero"/></clipPath><clipPath id="4ebae91912"><path d="M 59 33 L 153 33 L 153 105 L 59 105 Z M 59 33 " clip-rule="nonzero"/></clipPath><clipPath id="15a7c1ffe9"><path d="M 48.691406 58.535156 L 149.375 26.199219 L 167.722656 83.328125 L 67.035156 115.660156 Z M 48.691406 58.535156 " clip-rule="nonzero"/></clipPath><clipPath id="5d85de4fdb"><path d="M 48.691406 58.535156 L 149.375 26.199219 L 167.722656 83.328125 L 67.035156 115.660156 Z M 48.691406 58.535156 " clip-rule="nonzero"/></clipPath></defs><rect x="-37.5" width="450" fill="#ffffff" y="-37.499999" height="449.999989" fill-opacity="1"/><rect x="-37.5" width="450" fill="#ffffff" y="-37.499999" height="449.999989" fill-opacity="1"/><path stroke-linecap="round" transform="matrix(0.347222, 0, 0, 0.347222, 233.000336, 297.939912)" fill-opacity="1" fill="#fefefe" fill-rule="nonzero" stroke-linejoin="round" d="M 22.082783 43.935559 C 22.082783 43.935559 22.082783 -95.721954 22.082783 -95.721954 C 22.082783 -95.721954 -22.084721 -95.721954 -22.084721 -95.721954 C -22.084721 -95.721954 -22.084721 43.935559 -22.084721 43.935559 C -22.084721 43.935559 -167.344734 95.719313 -152.348483 95.719313 C -137.363482 95.719313 -22.084721 66.919311 -22.084721 66.919311 C -22.084721 66.919311 17.909033 95.561813 32.837784 95.561813 C 47.766536 95.561813 22.082783 66.919311 22.082783 66.919311 C 22.082783 66.919311 137.361544 95.561813 152.357795 95.561813 C 167.342797 95.561813 22.082783 43.935559 22.082783 43.935559 Z M 22.082783 43.935559 " stroke="#545454" stroke-width="2" stroke-opacity="1" stroke-miterlimit="4"/><path stroke-linecap="round" transform="matrix(0.347222, 0, 0, 0.347222, 286.277417, 331.083641)" fill-opacity="1" fill="#545454" fill-rule="nonzero" stroke-linejoin="round" d="M -17.876462 -0.0046351 C -17.876462 -9.870886 -9.866462 -17.869637 -0.000210675 -17.869637 C 9.86604 -17.869637 17.876041 -9.870886 17.876041 -0.0046351 C 17.876041 9.872866 9.86604 17.871617 -0.000210675 17.871617 C -9.866462 17.871617 -17.876462 9.872866 -17.876462 -0.0046351 Z M -17.876462 -0.0046351 " stroke="#545454" stroke-width="2" stroke-opacity="1" stroke-miterlimit="4"/><path stroke-linecap="round" transform="matrix(0.347222, 0, 0, 0.347222, 286.277417, 326.666287)" fill-opacity="1" fill="#00bf63" fill-rule="nonzero" stroke-linejoin="round" d="M 23.692292 12.717344 C 23.692292 12.717344 -23.681463 12.717344 -23.681463 12.717344 C -23.681463 12.717344 -19.811463 -12.718909 0.944789 -12.718909 C 21.689791 -12.718909 23.692292 12.717344 23.692292 12.717344 Z M 23.692292 12.717344 " stroke="#545454" stroke-width="2" stroke-opacity="1" stroke-miterlimit="4"/><path stroke-linecap="round" transform="matrix(0.347222, 0, 0, 0.347222, 242.309696, 331.083641)" fill-opacity="1" fill="#545454" fill-rule="nonzero" stroke-linejoin="round" d="M -17.868176 -0.0046351 C -17.868176 -9.870886 -9.869425 -17.869637 -0.00317387 -17.869637 C 9.874327 -17.869637 17.873078 -9.870886 17.873078 -0.0046351 C 17.873078 9.872866 9.874327 17.871617 -0.00317387 17.871617 C -9.869425 17.871617 -17.868176 9.872866 -17.868176 -0.0046351 Z M -17.868176 -0.0046351 " stroke="#545454" stroke-width="2" stroke-opacity="1" stroke-miterlimit="4"/><path stroke-linecap="round" transform="matrix(0.347222, 0, 0, 0.347222, 242.309696, 326.666287)" fill-opacity="1" fill="#00bf63" fill-rule="nonzero" stroke-linejoin="round" d="M 23.689328 12.717344 C 23.689328 12.717344 -23.684426 12.717344 -23.684426 12.717344 C -23.684426 12.717344 -19.803176 -12.718909 0.941826 -12.718909 C 21.698078 -12.718909 23.689328 12.717344 23.689328 12.717344 Z M 23.689328 12.717344 " stroke="#545454" stroke-width="2" stroke-opacity="1" stroke-miterlimit="4"/><path stroke-linecap="round" transform="matrix(0.347222, 0, 0, 0.347222, 179.723253, 331.083641)" fill-opacity="1" fill="#545454" fill-rule="nonzero" stroke-linejoin="round" d="M -17.866722 -0.0046351 C -17.866722 -9.870886 -9.867971 -17.869637 -0.00172007 -17.869637 C 9.875781 -17.869637 17.874532 -9.870886 17.874532 -0.0046351 C 17.874532 9.872866 9.875781 17.871617 -0.00172007 17.871617 C -9.867971 17.871617 -17.866722 9.872866 -17.866722 -0.0046351 Z M -17.866722 -0.0046351 " stroke="#545454" stroke-width="2" stroke-opacity="1" stroke-miterlimit="4"/><path stroke-linecap="round" transform="matrix(0.347222, 0, 0, 0.347222, 232.999969, 273.078438)" fill-opacity="1" fill="#545454" fill-rule="nonzero" stroke-linejoin="round" d="M -22.083663 15.28785 C -22.083663 15.28785 22.083841 24.119101 22.083841 24.119101 C 22.083841 24.119101 22.083841 -24.120904 22.083841 -24.120904 C 22.083841 -24.120904 -22.083663 -24.120904 -22.083663 -24.120904 C -22.083663 -24.120904 -22.083663 15.28785 -22.083663 15.28785 Z M -22.083663 15.28785 " stroke="#545454" stroke-width="2" stroke-opacity="1" stroke-miterlimit="4"/><path stroke-linecap="round" transform="matrix(0.347222, 0, 0, 0.347222, 179.723253, 326.666287)" fill-opacity="1" fill="#00bf63" fill-rule="nonzero" stroke-linejoin="round" d="M 23.690782 12.717344 C 23.690782 12.717344 -23.682972 12.717344 -23.682972 12.717344 C -23.682972 12.717344 -19.801722 -12.718909 0.94328 -12.718909 C 21.699532 -12.718909 23.690782 12.717344 23.690782 12.717344 Z M 23.690782 12.717344 " stroke="#545454" stroke-width="2" stroke-opacity="1" stroke-miterlimit="4"/><path stroke-linecap="round" transform="matrix(0.347222, 0, 0, 0.347222, 226.698242, 195.215949)" fill-opacity="1" fill="#171e1c" fill-rule="nonzero" stroke-linejoin="round" d="M -116.772197 97.894327 C -116.772197 97.894327 -84.394694 -123.854444 -50.757191 -171.880698 C -17.108437 -219.895703 125.271576 -211.300702 153.767828 -182.984449 C 182.264081 -154.668197 199.442833 114.994328 179.192831 156.765582 C 158.942829 198.525586 133.585327 219.900588 20.174066 219.900588 C -93.248445 219.900588 -146.247199 208.740587 -166.519701 180.221834 C -186.780953 151.691832 -199.437204 119.348079 -176.734702 108.818078 C -154.04345 98.299327 -116.772197 97.894327 -116.772197 97.894327 Z M -116.772197 97.894327 " stroke="#545454" stroke-width="2" stroke-opacity="1" stroke-miterlimit="4"/><path stroke-linecap="round" transform="matrix(0.347222, 0, 0, 0.347222, 240.053792, 318.680194)" fill="none" stroke-linejoin="round" d="M 1.768829 7.187291 C 1.768829 7.187291 -1.763671 -7.19021 -1.763671 -7.19021 " stroke="#545454" stroke-width="2" stroke-opacity="1" stroke-miterlimit="4"/><path stroke-linecap="round" transform="matrix(0.340843, 0.0662531, -0.0662531, 0.340843, 222.218589, 325.286287)" fill="none" stroke-linejoin="round" d="M -0.996645 7.192814 C -0.996645 7.192814 0.998458 -7.188343 0.998458 -7.188343 " stroke="#545454" stroke-width="2" stroke-opacity="1" stroke-miterlimit="4"/><path stroke-linecap="round" transform="matrix(0.340843, 0.0662531, -0.0662531, 0.340843, 214.80563, 315.403426)" fill-opacity="1" fill="#fefefe" fill-rule="nonzero" stroke-linejoin="round" d="M -36.67053 -20.781622 C -36.67053 -20.781622 -22.865779 31.075831 -22.865779 31.075831 C -22.865779 31.075831 36.073026 23.573183 36.073026 23.573183 C 36.073026 23.573183 34.682377 -28.920938 34.682377 -28.920938 C 34.682377 -28.920938 -36.67053 -20.781622 -36.67053 -20.781622 Z M -36.67053 -20.781622 " stroke="#545454" stroke-width="2" stroke-opacity="1" stroke-miterlimit="4"/><path stroke-linecap="round" transform="matrix(0.340843, 0.0662531, -0.0662531, 0.340843, 215.561753, 311.296914)" fill-opacity="1" fill="#545454" fill-rule="nonzero" stroke-linejoin="round" d="M -28.185767 22.371515 C -28.185767 22.371515 35.59166 11.991499 35.59166 11.991499 C 35.59166 11.991499 34.801405 -16.89596 34.801405 -16.89596 C 34.801405 -16.89596 -36.551501 -8.756643 -36.551501 -8.756643 C -36.551501 -8.756643 -28.185767 22.371515 -28.185767 22.371515 Z M -28.185767 22.371515 " stroke="#545454" stroke-width="2" stroke-opacity="1" stroke-miterlimit="4"/><path stroke-linecap="round" transform="matrix(0.340843, 0.0662531, -0.0662531, 0.340843, 205.924268, 328.868328)" fill-opacity="1" fill="#171e1c" fill-rule="nonzero" stroke-linejoin="round" d="M -8.723039 -22.730221 C -23.699081 -18.352221 -20.040707 -3.717642 -20.040707 -3.717642 C -20.040707 -3.717642 -67.853151 12.79631 -69.721323 23.290584 C -71.587348 33.795902 -44.246492 37.076801 -16.256364 32.495614 C 11.733765 27.914427 44.113825 18.972991 44.113825 18.972991 C 44.113825 18.972991 46.660761 9.848113 46.660761 9.848113 C 46.660761 9.848113 51.925269 15.116646 51.925269 15.116646 C 51.925269 15.116646 71.583958 10.183709 71.583958 10.183709 C 71.583958 10.183709 61.892686 -25.110568 59.206804 -31.086625 C 56.518774 -37.073726 6.253003 -27.108221 -8.723039 -22.730221 Z M -8.723039 -22.730221 " stroke="#545454" stroke-width="2" stroke-opacity="1" stroke-miterlimit="4"/><path stroke-linecap="round" transform="matrix(0.340843, 0.0662531, -0.0662531, 0.340843, 205.711647, 327.732958)" fill="none" stroke-linejoin="round" d="M -18.815689 -0.624693 C -18.815689 -0.624693 18.813236 0.633487 18.813236 0.633487 " stroke="#545454" stroke-width="2" stroke-opacity="1" stroke-miterlimit="4"/><path stroke-linecap="round" transform="matrix(0.347222, 0, 0, 0.347222, 152.868393, 308.188866)" fill-opacity="1" fill="#fefefe" fill-rule="nonzero" stroke-linejoin="round" d="M -29.455974 -35.812688 C -29.455974 -35.812688 -39.130975 18.941067 -39.130975 18.941067 C -39.130975 18.941067 17.83903 35.816069 17.83903 35.816069 C 17.83903 35.816069 39.135282 -14.516436 39.135282 -14.516436 C 39.135282 -14.516436 -29.455974 -35.812688 -29.455974 -35.812688 Z M -29.455974 -35.812688 " stroke="#545454" stroke-width="2" stroke-opacity="1" stroke-miterlimit="4"/><path stroke-linecap="round" transform="matrix(0.347222, 0, 0, 0.347222, 153.62847, 305.007959)" fill-opacity="1" fill="#545454" fill-rule="nonzero" stroke-linejoin="round" d="M -36.943748 3.340828 C -36.943748 3.340828 23.401257 26.65083 23.401257 26.65083 C 23.401257 26.65083 36.946259 -5.355423 36.946259 -5.355423 C 36.946259 -5.355423 -31.644998 -26.651675 -31.644998 -26.651675 C -31.644998 -26.651675 -36.943748 3.340828 -36.943748 3.340828 Z M -36.943748 3.340828 " stroke="#545454" stroke-width="2" stroke-opacity="1" stroke-miterlimit="4"/><path stroke-linecap="round" transform="matrix(0.347222, 0, 0, 0.347222, 136.677768, 323.822878)" fill-opacity="1" fill="#171e1c" fill-rule="nonzero" stroke-linejoin="round" d="M 8.274278 -31.192391 C -7.093223 -33.903642 -10.288224 -19.16614 -10.288224 -19.16614 C -10.288224 -19.16614 -60.463228 -25.544891 -66.796979 -16.94989 C -73.11948 -8.366139 -50.068227 6.686362 -22.944475 14.977613 C 4.179278 23.280114 37.175531 29.602614 37.175531 29.602614 C 37.175531 29.602614 43.498031 22.548864 43.498031 22.548864 C 43.498031 22.548864 45.883031 29.602614 45.883031 29.602614 C 45.883031 29.602614 65.694283 33.900115 65.694283 33.900115 C 65.694283 33.900115 72.646784 -2.032389 72.883034 -8.591139 C 73.119284 -15.14989 23.641779 -28.481141 8.274278 -31.192391 Z M 8.274278 -31.192391 " stroke="#545454" stroke-width="2" stroke-opacity="1" stroke-miterlimit="4"/><path stroke-linecap="round" transform="matrix(0.347222, 0, 0, 0.347222, 137.733319, 320.395789)" fill="none" stroke-linejoin="round" d="M -13.328211 -9.296122 C -13.328211 -9.296122 13.334291 9.28888 13.334291 9.28888 " stroke="#545454" stroke-width="2" stroke-opacity="1" stroke-miterlimit="4"/><path stroke-linecap="round" transform="matrix(0.347222, 0, 0, 0.347222, 210.912838, 263.042678)" fill-opacity="1" fill="#131635" fill-rule="nonzero" stroke-linejoin="round" d="M 193.289795 -132.512925 C 193.289795 -132.512925 -24.971475 -130.825425 -24.971475 -130.825425 C -24.971475 -130.825425 -63.918979 -134.650425 -97.331482 -131.151675 C -130.743985 -127.664174 -160.128988 -122.691674 -172.796489 -83.50792 C -185.45274 -44.335417 -203.666492 100.508347 -203.666492 100.508347 C -203.666492 100.508347 -127.335235 120.420849 -127.335235 120.420849 C -127.335235 120.420849 -55.267728 -17.211664 -55.267728 -17.211664 C -55.267728 -17.211664 -25.252725 134.6521 -25.252725 134.6521 C -25.252725 134.6521 57.896032 133.49335 57.896032 133.49335 C 57.896032 133.49335 66.671033 -14.995414 66.671033 -14.995414 C 66.671033 -14.995414 179.913544 -12.070414 191.793545 -54.134167 C 203.673546 -96.197921 193.289795 -132.512925 193.289795 -132.512925 Z M 193.289795 -132.512925 " stroke="#545454" stroke-width="2" stroke-opacity="1" stroke-miterlimit="4"/><path stroke-linecap="round" transform="matrix(0.347222, 0, 0, 0.347222, 199.233683, 239.381571)" fill="none" stroke-linejoin="round" d="M -21.631758 50.932329 C -21.631758 50.932329 -31.565509 -8.895177 -15.748007 -26.523928 C 0.0694941 -44.15268 31.569497 -50.925181 31.569497 -50.925181 " stroke="#545454" stroke-width="2" stroke-opacity="1" stroke-miterlimit="4"/><path stroke-linecap="round" transform="matrix(0.347222, 0, 0, 0.347222, 234.843387, 251.539203)" fill="none" stroke-linejoin="round" d="M -2.248956 18.134598 C -2.248956 18.134598 2.251044 -18.135405 2.251044 -18.135405 " stroke="#545454" stroke-width="2" stroke-opacity="1" stroke-miterlimit="4"/><path stroke-linecap="round" transform="matrix(0.347222, 0, 0, 0.347222, 184.965271, 165.00242)" fill-opacity="1" fill="#fefefe" fill-rule="nonzero" stroke-linejoin="round" d="M 65.710026 39.986783 C 65.710026 39.986783 13.228771 24.743032 13.228771 24.743032 C 13.228771 24.743032 7.300021 42.518033 7.300021 42.518033 C 7.300021 42.518033 -18.631232 -37.368224 -18.631232 -37.368224 C -18.631232 -37.368224 -11.374981 -58.169476 -15.751231 -64.053227 C -20.127482 -69.936977 -26.427482 -67.338227 -26.427482 -67.338227 C -26.427482 -67.338227 -35.123733 -109.514481 -39.961233 -113.451981 C -40.174983 -113.631981 -40.388734 -113.721981 -40.591234 -113.744481 C -45.248734 -114.014481 -41.074984 -74.301978 -41.074984 -74.301978 C -41.074984 -74.301978 -46.823734 -78.464478 -50.378734 -77.058228 C -53.933735 -75.651978 -53.933735 -71.309477 -53.933735 -71.309477 C -53.933735 -71.309477 -59.243735 -70.690727 -60.301235 -68.159477 C -61.358735 -65.628227 -59.659985 -60.756976 -59.659985 -60.756976 C -59.659985 -60.756976 -63.518736 -60.363226 -64.609986 -56.796976 C -65.712486 -53.241976 -61.279985 -44.759475 -59.659985 -43.116975 C -58.039985 -41.474474 -56.397485 -42.914475 -56.397485 -42.914475 C -56.397485 -42.914475 -47.037484 -28.086973 -43.347484 -17.073222 C -39.657483 -6.059471 -49.849984 103.639289 -2.66748 108.825539 C 44.526274 114.01179 65.710026 39.986783 65.710026 39.986783 Z M 65.710026 39.986783 " stroke="#545454" stroke-width="2" stroke-opacity="1" stroke-miterlimit="4"/><path stroke-linecap="round" transform="matrix(0.347222, 0, 0, 0.347222, 168.993392, 143.675688)" fill="none" stroke-linejoin="round" d="M -7.934719 -9.888483 C -7.934719 -9.888483 -3.423469 9.889019 2.257782 9.821519 C 7.939032 9.754019 5.959032 -4.758482 5.959032 -4.758482 " stroke="#545454" stroke-width="2" stroke-opacity="1" stroke-miterlimit="4"/><path stroke-linecap="round" transform="matrix(0.347222, 0, 0, 0.347222, 166.517353, 146.434018)" fill="none" stroke-linejoin="round" d="M -6.529977 -7.279971 C -6.529977 -7.279971 -1.287476 6.73753 2.548774 7.00753 C 6.373775 7.27753 6.531275 0.291279 6.531275 0.291279 " stroke="#545454" stroke-width="2" stroke-opacity="1" stroke-miterlimit="4"/><path stroke-linecap="round" transform="matrix(0.347222, 0, 0, 0.347222, 174.363874, 144.507281)" fill="none" stroke-linejoin="round" d="M 4.104544 -8.31222 C 4.104544 -8.31222 -6.909207 -0.414719 -6.436707 3.792781 C -5.952957 8.011532 6.917044 1.025281 6.917044 1.025281 C 6.917044 1.025281 0.234543 8.315282 0.234543 8.315282 " stroke="#545454" stroke-width="2" stroke-opacity="1" stroke-miterlimit="4"/><path stroke-linecap="round" transform="matrix(0.347222, 0, 0, 0.347222, 165.619081, 148.526035)" fill="none" stroke-linejoin="round" d="M -0.680453 4.537519 C -0.680453 4.537519 0.478297 3.142519 0.579547 1.432519 C 0.680797 -0.277481 0.0732972 -4.541231 0.0732972 -4.541231 " stroke="#545454" stroke-width="2" stroke-opacity="1" stroke-miterlimit="4"/><path stroke-linecap="round" transform="matrix(0.347222, 0, 0, 0.347222, 290.595806, 167.326028)" fill-opacity="1" fill="#fefefe" fill-rule="nonzero" stroke-linejoin="round" d="M -59.777177 -78.811469 C -49.179676 -89.02647 -22.269674 -79.283969 9.747829 -34.733964 C 41.765332 9.80479 70.992835 39.122292 62.386584 64.074795 C 53.780333 89.027297 26.780331 81.343546 6.822829 67.989795 C -13.123423 54.647294 -54.590927 -2.255211 -62.792178 -29.165214 C -70.993428 -56.086466 -70.363428 -68.607718 -59.777177 -78.811469 Z M -59.777177 -78.811469 " stroke="#545454" stroke-width="2" stroke-opacity="1" stroke-miterlimit="4"/><path stroke-linecap="round" transform="matrix(0.347222, 0, 0, 0.347222, 244.582956, 174.743381)" fill-opacity="1" fill="#00bf63" fill-rule="nonzero" stroke-linejoin="round" d="M -122.548926 123.454073 C -122.548926 123.454073 95.723594 121.766573 95.723594 121.766573 C 95.723594 121.766573 92.596094 5.621562 92.596094 5.621562 C 92.596094 5.621562 114.634846 22.496564 114.634846 22.496564 C 114.634846 22.496564 165.259851 -28.735941 165.259851 -28.735941 C 165.259851 -28.735941 112.823596 -105.877198 85.699843 -113.718449 C 58.587341 -121.548449 -81.553922 -123.4497 -113.503925 -96.539697 C -145.442678 -69.618445 -165.25393 -5.144689 -165.25393 -5.144689 C -165.25393 -5.144689 -106.596424 11.899063 -106.596424 11.899063 C -106.596424 11.899063 -122.548926 123.454073 -122.548926 123.454073 Z M -122.548926 123.454073 " stroke="#545454" stroke-width="2" stroke-opacity="1" stroke-miterlimit="4"/><path stroke-linecap="round" transform="matrix(0.347222, 0, 0, 0.347222, 209.34235, 167.723603)" fill="none" stroke-linejoin="round" d="M -4.495968 32.149778 C -4.495968 32.149778 4.492783 -32.143978 4.492783 -32.143978 " stroke="#545454" stroke-width="2" stroke-opacity="1" stroke-miterlimit="4"/><path stroke-linecap="round" transform="matrix(0.347222, 0, 0, 0.347222, 281.162124, 170.819432)" fill-opacity="1" fill="#545454" fill-rule="nonzero" stroke-linejoin="round" d="M -12.14442 16.956287 C -12.14442 16.956287 -15.27192 -33.826217 -15.27192 -33.826217 C -15.27192 -33.826217 15.271833 28.375039 15.271833 28.375039 C 15.271833 28.375039 9.883083 33.831289 9.883083 33.831289 C 9.883083 33.831289 -12.14442 16.956287 -12.14442 16.956287 Z M -12.14442 16.956287 " stroke="#545454" stroke-width="2" stroke-opacity="1" stroke-miterlimit="4"/><path stroke-linecap="round" transform="matrix(0.347222, 0, 0, 0.347222, 240.687483, 141.273257)" fill="none" stroke-linejoin="round" d="M -39.363705 -18.584482 C -39.363705 -18.584482 -48.701206 -8.099481 -42.794955 3.57802 C -36.877455 15.255521 -3.723702 22.331772 22.185051 12.161771 C 48.105053 1.99177 48.701303 -12.554482 46.597553 -16.986982 C 44.482553 -21.419483 38.463802 -22.341983 38.463802 -22.341983 " stroke="#545454" stroke-width="2" stroke-opacity="1" stroke-miterlimit="4"/><path stroke-linecap="round" transform="matrix(0.347222, 0, 0, 0.347222, 233.532968, 115.884016)" fill-opacity="1" fill="#fefefe" fill-rule="nonzero" stroke-linejoin="round" d="M -14.49495 71.445289 C -14.49495 71.445289 -11.97495 46.211537 -11.97495 46.211537 C -11.97495 46.211537 -37.816202 54.480288 -45.871203 29.044035 C -53.926204 3.607783 -52.969954 -48.715972 -31.313702 -65.073473 C -9.65745 -81.442225 22.326303 -75.367224 37.345055 -60.753473 C 52.375056 -46.150971 52.352556 -22.469719 49.450056 -9.003468 C 46.547555 4.462783 46.356305 19.267785 46.356305 19.267785 C 46.356305 19.267785 53.927556 60.724038 53.927556 60.724038 C 53.927556 60.724038 40.978805 78.28529 18.377553 79.86029 C -4.223699 81.44654 -14.49495 71.445289 -14.49495 71.445289 Z M -14.49495 71.445289 " stroke="#545454" stroke-width="2" stroke-opacity="1" stroke-miterlimit="4"/><path fill="#545454" d="M 225.027344 112.609375 C 225.027344 113.050781 225.386719 113.410156 225.828125 113.410156 C 226.273438 113.410156 226.632812 113.050781 226.632812 112.609375 C 226.632812 112.164062 226.273438 111.804688 225.828125 111.804688 C 225.386719 111.804688 225.027344 112.164062 225.027344 112.609375 Z M 225.027344 112.609375 " fill-opacity="1" fill-rule="nonzero"/><path fill="#545454" d="M 216.875 112.609375 C 216.875 113.050781 217.234375 113.410156 217.679688 113.410156 C 218.121094 113.410156 218.480469 113.050781 218.480469 112.609375 C 218.480469 112.164062 218.121094 111.804688 217.679688 111.804688 C 217.234375 111.804688 216.875 112.164062 216.875 112.609375 Z M 216.875 112.609375 " fill-opacity="1" fill-rule="nonzero"/><path stroke-linecap="round" transform="matrix(0.347222, 0, 0, 0.347222, 219.503104, 116.432284)" fill="none" stroke-linejoin="round" d="M 3.568559 -11.79748 C 3.568559 -11.79748 -4.463941 11.793772 -4.463941 11.793772 C -4.463941 11.793772 4.457309 10.173772 4.457309 10.173772 " stroke="#545454" stroke-width="2" stroke-opacity="1" stroke-miterlimit="4"/><path stroke-linecap="round" transform="matrix(0.347222, 0, 0, 0.347222, 234.937475, 131.047199)" fill-opacity="1" fill="#545454" fill-rule="nonzero" stroke-linejoin="round" d="M -16.019929 2.552818 C -16.019929 2.552818 -7.098678 0.764068 0.787573 -4.185932 C 8.685074 -9.124683 17.606325 -19.868434 17.606325 -19.868434 C 17.606325 -19.868434 17.752575 -9.124683 7.863824 3.790318 C -2.036177 16.69407 -17.752429 19.86657 -17.752429 19.86657 C -17.752429 19.86657 -16.019929 2.552818 -16.019929 2.552818 Z M -16.019929 2.552818 " stroke="#545454" stroke-width="2" stroke-opacity="1" stroke-miterlimit="4"/><path stroke-linecap="round" transform="matrix(0.347222, 0, 0, 0.347222, 223.841987, 122.771865)" fill="none" stroke-linejoin="round" d="M 8.037577 -2.830471 C 8.037577 -2.830471 5.652577 1.30953 0.781326 2.07453 C -4.101174 2.82828 -8.038674 0.74703 -8.038674 0.74703 " stroke="#545454" stroke-width="2" stroke-opacity="1" stroke-miterlimit="4"/><path stroke-linecap="round" transform="matrix(0.347222, 0, 0, 0.347222, 227.017679, 108.131938)" fill="none" stroke-linejoin="round" d="M -7.610917 0.00251943 C -7.610917 0.00251943 -2.323416 -2.899981 1.704084 -1.381231 C 5.731584 0.126269 7.621585 2.89377 7.621585 2.89377 " stroke="#545454" stroke-width="2" stroke-opacity="1" stroke-miterlimit="4"/><path stroke-linecap="round" transform="matrix(0.347222, 0, 0, 0.347222, 217.460748, 108.314575)" fill="none" stroke-linejoin="round" d="M 5.085547 0.196523 C 5.085547 0.196523 3.724297 -1.479727 0.259296 -1.502227 C -3.194454 -1.524727 -5.084454 1.524023 -5.084454 1.524023 " stroke="#545454" stroke-width="2" stroke-opacity="1" stroke-miterlimit="4"/><path stroke-linecap="round" transform="matrix(0.347222, 0, 0, 0.347222, 241.713533, 114.519777)" fill="none" stroke-linejoin="round" d="M 3.052524 -5.513209 C 3.052524 -5.513209 -0.761226 -4.748209 -1.908726 -1.159459 C -3.056227 2.429292 -2.741227 5.511792 -2.741227 5.511792 " stroke="#545454" stroke-width="2" stroke-opacity="1" stroke-miterlimit="4"/><path stroke-linecap="round" transform="matrix(0.347222, 0, 0, 0.347222, 234.655199, 105.396519)" fill-opacity="1" fill="#171e1c" fill-rule="nonzero" stroke-linejoin="round" d="M 12.670529 20.773028 C 12.670529 20.773028 22.68303 11.750527 28.40928 16.880528 C 34.135531 21.999278 29.16303 34.048029 25.69803 37.51303 C 22.23303 40.97803 16.653029 41.28178 16.653029 41.28178 C 16.653029 41.28178 23.08803 58.314282 31.019281 58.156782 C 38.961781 58.010532 43.124282 49.483031 43.124282 49.483031 C 43.124282 49.483031 59.436783 15.969278 51.460533 -12.054475 C 43.473032 -40.078228 23.38053 -45.658228 23.38053 -45.658228 C 23.38053 -45.658228 5.504278 -58.314479 -0.0644722 -56.199479 C -5.644473 -54.095729 -3.833223 -49.426978 -3.833223 -49.426978 C -3.833223 -49.426978 -24.623225 -55.445729 -28.695725 -51.834479 C -32.768225 -48.211978 -29.606975 -45.658228 -29.606975 -45.658228 C -29.606975 -45.658228 -53.558227 -39.549477 -56.044477 -32.090727 C -58.530728 -24.631976 -51.206977 -23.506976 -51.206977 -23.506976 C -51.206977 -23.506976 -59.430728 -15.598225 -58.530728 -10.513225 C -57.619478 -5.428224 -47.111977 -6.665724 -47.111977 -6.665724 C -47.111977 -6.665724 -48.079477 -1.580724 -39.968226 0.00552621 C -31.856975 1.580526 -11.516973 -9.601975 -11.516973 -9.601975 C -11.516973 -9.601975 -11.966973 -0.455724 -7.151973 2.559276 C -2.325722 5.574277 3.850528 4.516777 3.850528 4.516777 C 3.850528 4.516777 -1.493222 15.665528 2.343028 19.513028 C 6.190528 23.349278 12.670529 20.773028 12.670529 20.773028 Z M 12.670529 20.773028 " stroke="#545454" stroke-width="2" stroke-opacity="1" stroke-miterlimit="4"/><path stroke-linecap="round" transform="matrix(0.347222, 0, 0, 0.347222, 278.163181, 182.008318)" fill-opacity="1" fill="#fefefe" fill-rule="nonzero" stroke-linejoin="round" d="M 50.638794 -13.422706 C 50.638794 -13.422706 -22.756212 -41.142709 -22.756212 -41.142709 C -22.756212 -41.142709 -39.991214 -50.63771 -50.599965 -51.69521 C -61.208716 -52.76396 -65.337466 -48.218959 -76.024967 -39.376458 C -86.712468 -30.545208 -101.02247 -16.662706 -99.751219 -13.838956 C -98.479969 -11.026456 -92.978719 -12.263956 -92.978719 -12.263956 C -92.978719 -12.263956 -103.41872 -3.905205 -102.01247 -0.282705 C -100.61747 3.339795 -91.167469 -1.632705 -91.167469 -1.632705 C -91.167469 -1.632705 -98.918719 8.998546 -94.103719 9.887296 C -89.299969 10.776046 -80.772468 1.607295 -80.772468 1.607295 C -80.772468 1.607295 -84.507468 8.841046 -80.131218 8.706046 C -75.754967 8.559796 -73.279967 5.139796 -67.834967 -0.395205 C -62.401216 -5.930205 -53.929965 -17.337706 -53.929965 -17.337706 C -53.929965 -17.337706 -4.362461 24.726047 26.901292 38.743549 C 58.165045 52.76105 89.361298 47.5748 96.392549 29.192298 C 103.412549 10.809796 89.440048 -3.230205 89.440048 -3.230205 " stroke="#545454" stroke-width="2" stroke-opacity="1" stroke-miterlimit="4"/><path stroke-linecap="round" transform="matrix(0.347222, 0, 0, 0.347222, 262.313162, 173.761453)" fill="none" stroke-linejoin="round" d="M -8.281906 6.413267 C -8.281906 6.413267 -2.240656 -2.046734 -2.240656 -2.046734 C -2.240656 -2.046734 -2.713156 10.992018 0.583094 12.409518 C 3.890595 13.827018 5.454345 5.805767 6.399345 1.249517 C 7.344345 -3.306734 8.289345 -13.825485 8.289345 -13.825485 " stroke="#545454" stroke-width="2" stroke-opacity="1" stroke-miterlimit="4"/><path stroke-linecap="round" transform="matrix(0.347222, 0, 0, 0.347222, 248.077431, 175.671507)" fill="none" stroke-linejoin="round" d="M -6.331751 5.986061 C -6.331751 5.986061 6.3245 -5.98394 6.3245 -5.98394 " stroke="#545454" stroke-width="2" stroke-opacity="1" stroke-miterlimit="4"/><path stroke-linecap="round" transform="matrix(0.347222, 0, 0, 0.347222, 248.979862, 178.555901)" fill="none" stroke-linejoin="round" d="M -7.119503 8.310256 C -7.119503 8.310256 7.122999 -8.305996 7.122999 -8.305996 " stroke="#545454" stroke-width="2" stroke-opacity="1" stroke-miterlimit="4"/><path stroke-linecap="round" transform="matrix(0.347222, 0, 0, 0.347222, 251.84407, 179.765599)" fill="none" stroke-linejoin="round" d="M -4.973421 8.066324 C -4.973421 8.066324 4.97158 -8.066177 4.97158 -8.066177 " stroke="#545454" stroke-width="2" stroke-opacity="1" stroke-miterlimit="4"/><path stroke-linecap="round" transform="matrix(0.347222, 0, 0, 0.347222, 189.281243, 183.860057)" fill="none" stroke-linejoin="round" d="M -5.129981 -11.791964 C -5.129981 -11.791964 5.13002 11.788038 5.13002 11.788038 " stroke="#545454" stroke-width="2" stroke-opacity="1" stroke-miterlimit="4"/><path stroke-linecap="round" transform="matrix(0.347222, 0, 0, 0.347222, 187.410739, 88.026726)" fill-opacity="1" fill="#00bf63" fill-rule="nonzero" stroke-linejoin="round" d="M 43.783327 33.110532 C 55.719578 24.043031 63.167079 11.31928 63.167079 -2.788222 C 63.167079 -30.316974 34.884576 -52.625726 -0.00167715 -52.625726 C -34.88793 -52.625726 -63.159183 -30.316974 -63.159183 -2.788222 C -63.159183 24.729281 -34.88793 47.049283 -0.00167715 47.049283 C 10.213324 47.049283 19.854575 45.125533 28.393325 41.728032 C 28.393325 41.728032 51.320828 52.629283 51.320828 52.629283 C 51.320828 52.629283 43.783327 33.110532 43.783327 33.110532 Z M 43.783327 33.110532 " stroke="#545454" stroke-width="2" stroke-opacity="1" stroke-miterlimit="4"/><path stroke-linecap="round" transform="matrix(0.309377, -0.157636, 0.157636, 0.309377, 249.58074, 79.521763)" fill-opacity="1" fill="#545454" fill-rule="nonzero" stroke-linejoin="round" d="M 10.544708 4.911042 C 13.260554 -0.91471 10.727016 -7.836885 4.911288 -10.547623 C -0.914464 -13.263468 -7.836639 -10.72993 -10.552485 -4.904178 C -13.253199 0.916657 -10.729685 7.833725 -4.903933 10.54957 C 0.911795 13.260309 7.83397 10.72677 10.544708 4.911042 Z M 10.544708 4.911042 " stroke="#545454" stroke-width="2" stroke-opacity="1" stroke-miterlimit="4"/><path stroke-linecap="round" transform="matrix(0.309377, -0.157636, 0.157636, 0.309377, 250.580174, 64.729772)" fill-opacity="1" fill="#00bf63" fill-rule="nonzero" stroke-linejoin="round" d="M 25.613639 4.580893 C 32.789625 -10.840905 25.508482 -29.285577 9.354847 -35.496078 C -4.290541 -40.731591 -19.991496 -34.994353 -27.036978 -22.182807 C -31.868143 -13.419741 -31.783001 -3.426936 -27.855818 4.824019 C -27.855818 4.824019 -31.912297 24.209007 -31.912297 24.209007 C -32.789054 28.358204 -30.677659 32.565304 -26.832281 34.360482 C -26.832281 34.360482 -16.970507 38.943391 -16.970507 38.943391 C -13.125129 40.738569 -8.558365 39.631132 -5.93689 36.295157 C -5.93689 36.295157 6.286764 20.705394 6.286764 20.705394 C 14.504113 18.554004 21.746911 12.888401 25.613639 4.580893 Z M 25.613639 4.580893 " stroke="#545454" stroke-width="2" stroke-opacity="1" stroke-miterlimit="4"/><path stroke-linecap="round" transform="matrix(0.309377, -0.157636, 0.157636, 0.309377, 250.650338, 67.080128)" fill="none" stroke-linejoin="round" d="M -24.340208 28.033201 C -24.340208 28.033201 -5.902609 -9.465977 -4.959303 -21.055959 C -4.011081 -32.63081 -14.478305 -29.037424 -15.671012 -18.395219 C -16.853695 -7.747906 -3.239472 -5.697442 1.128968 -10.504388 C 5.502324 -15.296204 4.476127 -18.634714 1.65012 -16.854962 C -1.185911 -15.080318 -3.564533 -3.969143 3.944888 -1.014107 C 11.46944 1.936012 24.33672 -13.603583 19.215309 -16.314082 C 14.099006 -19.034604 4.772914 -8.685583 -0.899349 2.843343 C -6.561397 14.352222 -14.458387 32.626325 -14.458387 32.626325 " stroke="#545454" stroke-width="2" stroke-opacity="1" stroke-miterlimit="4"/><path stroke-linecap="round" transform="matrix(0.347222, 0, 0, 0.347222, 288.726725, 102.742354)" fill-opacity="1" fill="#131635" fill-rule="nonzero" stroke-linejoin="round" d="M 39.610786 8.898271 C 39.610786 8.898271 39.610786 -8.89923 39.610786 -8.89923 C 39.610786 -8.89923 32.804536 -8.89923 32.804536 -8.89923 C 32.028286 -11.734231 30.914536 -14.411731 29.485785 -16.909231 C 29.485785 -16.909231 34.300786 -21.724232 34.300786 -21.724232 C 34.300786 -21.724232 21.723285 -34.301733 21.723285 -34.301733 C 21.723285 -34.301733 16.908284 -29.486732 16.908284 -29.486732 C 14.422034 -30.926733 11.733284 -32.029233 8.887034 -32.805483 C 8.887034 -32.805483 8.887034 -39.611733 8.887034 -39.611733 C 8.887034 -39.611733 -8.887968 -39.611733 -8.887968 -39.611733 C -8.887968 -39.611733 -8.887968 -32.805483 -8.887968 -32.805483 C -11.722968 -32.029233 -14.422969 -30.926733 -16.909219 -29.486732 C -16.909219 -29.486732 -21.724219 -34.301733 -21.724219 -34.301733 C -21.724219 -34.301733 -34.30172 -21.724232 -34.30172 -21.724232 C -34.30172 -21.724232 -29.48672 -16.909231 -29.48672 -16.909231 C -30.91547 -14.411731 -32.02922 -11.734231 -32.79422 -8.89923 C -32.79422 -8.89923 -39.611721 -8.89923 -39.611721 -8.89923 C -39.611721 -8.89923 -39.611721 8.898271 -39.611721 8.898271 C -39.611721 8.898271 -32.79422 8.898271 -32.79422 8.898271 C -32.02922 11.733271 -30.91547 14.410772 -29.48672 16.908272 C -29.48672 16.908272 -34.30172 21.723272 -34.30172 21.723272 C -34.30172 21.723272 -21.724219 34.300774 -21.724219 34.300774 C -21.724219 34.300774 -16.909219 29.474523 -16.909219 29.474523 C -14.422969 30.914523 -11.722968 32.028273 -8.887968 32.793273 C -8.887968 32.793273 -8.887968 39.610774 -8.887968 39.610774 C -8.887968 39.610774 8.887034 39.610774 8.887034 39.610774 C 8.887034 39.610774 8.887034 32.793273 8.887034 32.793273 C 11.733284 32.028273 14.422034 30.914523 16.908284 29.474523 C 16.908284 29.474523 21.723285 34.300774 21.723285 34.300774 C 21.723285 34.300774 34.300786 21.723272 34.300786 21.723272 C 34.300786 21.723272 29.485785 16.908272 29.485785 16.908272 C 30.914536 14.410772 32.028286 11.733271 32.804536 8.898271 C 32.804536 8.898271 39.610786 8.898271 39.610786 8.898271 Z M -0.000467252 14.669522 C -8.111718 14.669522 -14.681719 8.099521 -14.681719 -0.000479673 C -14.681719 -8.10048 -8.111718 -14.670481 -0.000467252 -14.670481 C 8.110784 -14.670481 14.680784 -8.10048 14.680784 -0.000479673 C 14.680784 8.099521 8.110784 14.669522 -0.000467252 14.669522 Z M -0.000467252 14.669522 " stroke="#545454" stroke-width="2" stroke-opacity="1" stroke-miterlimit="4"/><path stroke-linecap="round" transform="matrix(0.347222, 0, 0, 0.347222, 300.736098, 125.590965)" fill-opacity="1" fill="#131635" fill-rule="nonzero" stroke-linejoin="round" d="M 26.005039 5.835523 C 26.005039 5.835523 26.005039 -5.830728 26.005039 -5.830728 C 26.005039 -5.830728 21.527539 -5.830728 21.527539 -5.830728 C 21.021289 -7.698229 20.290039 -9.464479 19.356289 -11.095729 C 19.356289 -11.095729 22.517539 -14.256979 22.517539 -14.256979 C 22.517539 -14.256979 14.260038 -22.51448 14.260038 -22.51448 C 14.260038 -22.51448 11.098788 -19.35323 11.098788 -19.35323 C 9.467538 -20.29823 7.701287 -21.02948 5.833787 -21.53573 C 5.833787 -21.53573 5.833787 -26.00198 5.833787 -26.00198 C 5.833787 -26.00198 -5.843714 -26.00198 -5.843714 -26.00198 C -5.843714 -26.00198 -5.843714 -21.53573 -5.843714 -21.53573 C -7.699964 -21.02948 -9.466214 -20.29823 -11.108714 -19.35323 C -11.108714 -19.35323 -14.258715 -22.51448 -14.258715 -22.51448 C -14.258715 -22.51448 -22.516215 -14.256979 -22.516215 -14.256979 C -22.516215 -14.256979 -19.354965 -11.095729 -19.354965 -11.095729 C -20.288715 -9.464479 -21.031215 -7.698229 -21.537465 -5.830728 C -21.537465 -5.830728 -26.003716 -5.830728 -26.003716 -5.830728 C -26.003716 -5.830728 -26.003716 5.835523 -26.003716 5.835523 C -26.003716 5.835523 -21.537465 5.835523 -21.537465 5.835523 C -21.031215 7.703023 -20.288715 9.469273 -19.354965 11.100523 C -19.354965 11.100523 -22.516215 14.261773 -22.516215 14.261773 C -22.516215 14.261773 -14.258715 22.519274 -14.258715 22.519274 C -14.258715 22.519274 -11.108714 19.358024 -11.108714 19.358024 C -9.466214 20.291774 -7.699964 21.034274 -5.843714 21.529274 C -5.843714 21.529274 -5.843714 26.006775 -5.843714 26.006775 C -5.843714 26.006775 5.833787 26.006775 5.833787 26.006775 C 5.833787 26.006775 5.833787 21.529274 5.833787 21.529274 C 7.701287 21.034274 9.467538 20.291774 11.098788 19.358024 C 11.098788 19.358024 14.260038 22.519274 14.260038 22.519274 C 14.260038 22.519274 22.517539 14.261773 22.517539 14.261773 C 22.517539 14.261773 19.356289 11.100523 19.356289 11.100523 C 20.290039 9.469273 21.021289 7.703023 21.527539 5.835523 C 21.527539 5.835523 26.005039 5.835523 26.005039 5.835523 Z M -0.00496325 9.638023 C -5.314964 9.638023 -9.634964 5.318023 -9.634964 -0.00322791 C -9.634964 -5.324478 -5.314964 -9.633229 -0.00496325 -9.633229 C 5.316287 -9.633229 9.636288 -5.324478 9.636288 -0.00322791 C 9.636288 5.318023 5.316287 9.638023 -0.00496325 9.638023 Z M -0.00496325 9.638023 " stroke="#545454" stroke-width="2" stroke-opacity="1" stroke-miterlimit="4"/><path stroke-linecap="round" transform="matrix(0.347222, 0, 0, 0.347222, 168.303466, 207.258678)" fill-opacity="1" fill="#131635" fill-rule="nonzero" stroke-linejoin="round" d="M 382.998553 -12.872493 C 382.998553 -12.872493 -383.002768 -12.872493 -383.002768 -12.872493 C -383.002768 -12.872493 -383.002768 12.86751 -383.002768 12.86751 C -383.002768 12.86751 382.998553 12.86751 382.998553 12.86751 C 382.998553 12.86751 382.998553 -12.872493 382.998553 -12.872493 Z M 382.998553 -12.872493 " stroke="#545454" stroke-width="2" stroke-opacity="1" stroke-miterlimit="4"/><path stroke-linecap="round" transform="matrix(0.347222, 0, 0, 0.347222, 322.635041, 207.258678)" fill-opacity="1" fill="#545454" fill-rule="nonzero" stroke-linejoin="round" d="M 61.474838 -12.872493 C 61.474838 -12.872493 -61.476424 -12.872493 -61.476424 -12.872493 C -61.476424 -12.872493 -61.476424 12.86751 -61.476424 12.86751 C -61.476424 12.86751 61.474838 12.86751 61.474838 12.86751 C 61.474838 12.86751 61.474838 -12.872493 61.474838 -12.872493 Z M 61.474838 -12.872493 " stroke="#545454" stroke-width="2" stroke-opacity="1" stroke-miterlimit="4"/><path stroke-linecap="round" transform="matrix(0.347222, 0, 0, 0.347222, 260.721491, 274.508303)" fill-opacity="1" fill="#131635" fill-rule="nonzero" stroke-linejoin="round" d="M -12.866646 180.808605 C -12.866646 180.808605 12.873356 180.808605 12.873356 180.808605 C 12.873356 180.808605 12.873356 -180.811429 12.873356 -180.811429 C 12.873356 -180.811429 -12.866646 -180.811429 -12.866646 -180.811429 C -12.866646 -180.811429 -12.866646 180.808605 -12.866646 180.808605 Z M -12.866646 180.808605 " stroke="#545454" stroke-width="2" stroke-opacity="1" stroke-miterlimit="4"/><path stroke-linecap="round" transform="matrix(0.347222, 0, 0, 0.347222, 267.476706, 274.508303)" fill-opacity="1" fill="#131635" fill-rule="nonzero" stroke-linejoin="round" d="M -6.581664 180.808605 C -6.581664 180.808605 6.580837 180.808605 6.580837 180.808605 C 6.580837 180.808605 6.580837 -180.811429 6.580837 -180.811429 C 6.580837 -180.811429 -6.581664 -180.811429 -6.581664 -180.811429 C -6.581664 -180.811429 -6.581664 180.808605 -6.581664 180.808605 Z M -6.581664 180.808605 " stroke="#545454" stroke-width="2" stroke-opacity="1" stroke-miterlimit="4"/><path stroke-linecap="round" transform="matrix(0.347222, 0, 0, 0.347222, 309.220472, 274.508303)" fill-opacity="1" fill="#131635" fill-rule="nonzero" stroke-linejoin="round" d="M -12.874961 180.808605 C -12.874961 180.808605 12.865041 180.808605 12.865041 180.808605 C 12.865041 180.808605 12.865041 -180.811429 12.865041 -180.811429 C 12.865041 -180.811429 -12.874961 -180.811429 -12.874961 -180.811429 C -12.874961 -180.811429 -12.874961 180.808605 -12.874961 180.808605 Z M -12.874961 180.808605 " stroke="#545454" stroke-width="2" stroke-opacity="1" stroke-miterlimit="4"/><path stroke-linecap="round" transform="matrix(0.347222, 0, 0, 0.347222, 315.974984, 274.508303)" fill-opacity="1" fill="#545454" fill-rule="nonzero" stroke-linejoin="round" d="M -6.587954 180.808605 C -6.587954 180.808605 6.585797 180.808605 6.585797 180.808605 C 6.585797 180.808605 6.585797 -180.811429 6.585797 -180.811429 C 6.585797 -180.811429 -6.587954 -180.811429 -6.587954 -180.811429 C -6.587954 -180.811429 -6.587954 180.808605 -6.587954 180.808605 Z M -6.587954 180.808605 " stroke="#545454" stroke-width="2" stroke-opacity="1" stroke-miterlimit="4"/><path stroke-linecap="round" transform="matrix(0.347222, 0, 0, 0.347222, 64.845139, 274.508303)" fill-opacity="1" fill="#131635" fill-rule="nonzero" stroke-linejoin="round" d="M -12.874003 180.808605 C -12.874003 180.808605 12.866 180.808605 12.866 180.808605 C 12.866 180.808605 12.866 -180.811429 12.866 -180.811429 C 12.866 -180.811429 -12.874003 -180.811429 -12.874003 -180.811429 C -12.874003 -180.811429 -12.874003 180.808605 -12.874003 180.808605 Z M -12.874003 180.808605 " stroke="#545454" stroke-width="2" stroke-opacity="1" stroke-miterlimit="4"/><path stroke-linecap="round" transform="matrix(0.347222, 0, 0, 0.347222, 71.599994, 274.508303)" fill-opacity="1" fill="#131635" fill-rule="nonzero" stroke-linejoin="round" d="M -6.587984 180.808605 C -6.587984 180.808605 6.585767 180.808605 6.585767 180.808605 C 6.585767 180.808605 6.585767 -180.811429 6.585767 -180.811429 C 6.585767 -180.811429 -6.587984 -180.811429 -6.587984 -180.811429 C -6.587984 -180.811429 -6.587984 180.808605 -6.587984 180.808605 Z M -6.587984 180.808605 " stroke="#545454" stroke-width="2" stroke-opacity="1" stroke-miterlimit="4"/><path stroke-linecap="round" transform="matrix(0.347222, 0, 0, 0.347222, 113.343739, 274.508303)" fill-opacity="1" fill="#131635" fill-rule="nonzero" stroke-linejoin="round" d="M -12.869969 180.808605 C -12.869969 180.808605 12.870034 180.808605 12.870034 180.808605 C 12.870034 180.808605 12.870034 -180.811429 12.870034 -180.811429 C 12.870034 -180.811429 -12.869969 -180.811429 -12.869969 -180.811429 C -12.869969 -180.811429 -12.869969 180.808605 -12.869969 180.808605 Z M -12.869969 180.808605 " stroke="#545454" stroke-width="2" stroke-opacity="1" stroke-miterlimit="4"/><path stroke-linecap="round" transform="matrix(0.347222, 0, 0, 0.347222, 120.098257, 274.508303)" fill-opacity="1" fill="#545454" fill-rule="nonzero" stroke-linejoin="round" d="M -6.582982 180.808605 C -6.582982 180.808605 6.590769 180.808605 6.590769 180.808605 C 6.590769 180.808605 6.590769 -180.811429 6.590769 -180.811429 C 6.590769 -180.811429 -6.582982 -180.811429 -6.582982 -180.811429 C -6.582982 -180.811429 -6.582982 180.808605 -6.582982 180.808605 Z M -6.582982 180.808605 " stroke="#545454" stroke-width="2" stroke-opacity="1" stroke-miterlimit="4"/><path stroke-linecap="round" transform="matrix(0.347222, 0, 0, 0.347222, 147.630888, 199.609352)" fill-opacity="1" fill="#00bf63" fill-rule="nonzero" stroke-linejoin="round" d="M 160.228059 -9.157436 C 160.228059 -9.157436 -160.228221 -9.157436 -160.228221 -9.157436 C -160.228221 -9.157436 -160.228221 9.157566 -160.228221 9.157566 C -160.228221 9.157566 160.228059 9.157566 160.228059 9.157566 C 160.228059 9.157566 160.228059 -9.157436 160.228059 -9.157436 Z M 160.228059 -9.157436 " stroke="#545454" stroke-width="2" stroke-opacity="1" stroke-miterlimit="4"/><path stroke-linecap="round" transform="matrix(0.347222, 0, 0, 0.347222, 129.574302, 175.203108)" fill-opacity="1" fill="#00bf63" fill-rule="nonzero" stroke-linejoin="round" d="M 108.224771 -79.44746 C 108.224771 -79.44746 -130.579001 -79.44746 -130.579001 -79.44746 C -130.579001 -79.44746 -108.225249 79.447555 -108.225249 79.447555 C -108.225249 79.447555 130.578524 79.447555 130.578524 79.447555 C 130.578524 79.447555 108.224771 -79.44746 108.224771 -79.44746 Z M 108.224771 -79.44746 " stroke="#545454" stroke-width="2" stroke-opacity="1" stroke-miterlimit="4"/><path stroke-linecap="round" transform="matrix(0.347222, 0, 0, 0.347222, 80.052772, 156.967343)" fill-opacity="1" fill="#171e1c" fill-rule="nonzero" stroke-linejoin="round" d="M 6.868017 -30.989702 C 6.868017 -30.989702 -6.868234 -30.989702 -6.868234 -30.989702 C -6.868234 -30.989702 -6.868234 30.986554 -6.868234 30.986554 C -6.868234 30.986554 6.868017 30.986554 6.868017 30.986554 C 6.868017 30.986554 6.868017 -30.989702 6.868017 -30.989702 Z M 6.868017 -30.989702 " stroke="#545454" stroke-width="2" stroke-opacity="1" stroke-miterlimit="4"/><path stroke-linecap="round" transform="matrix(0.347222, 0, 0, 0.347222, 80.052772, 186.219069)" fill-opacity="1" fill="#171e1c" fill-rule="nonzero" stroke-linejoin="round" d="M 7.194267 -47.723424 C 7.194267 -47.723424 -7.183234 -47.723424 -7.183234 -47.723424 C -7.183234 -47.723424 -7.183234 47.721585 -7.183234 47.721585 C -7.183234 47.721585 7.194267 47.721585 7.194267 47.721585 C 7.194267 47.721585 7.194267 -47.723424 7.194267 -47.723424 Z M 7.194267 -47.723424 " stroke="#545454" stroke-width="2" stroke-opacity="1" stroke-miterlimit="4"/><path stroke-linecap="round" transform="matrix(0.347222, 0, 0, 0.347222, 73.207982, 186.219069)" fill-opacity="1" fill="#171e1c" fill-rule="nonzero" stroke-linejoin="round" d="M 26.907264 -47.723424 C 26.907264 -47.723424 12.518513 -47.723424 12.518513 -47.723424 C 12.518513 -47.723424 -26.901491 47.721585 -26.901491 47.721585 C -26.901491 47.721585 -12.52399 47.721585 -12.52399 47.721585 C -12.52399 47.721585 26.907264 -47.723424 26.907264 -47.723424 Z M 26.907264 -47.723424 " stroke="#545454" stroke-width="2" stroke-opacity="1" stroke-miterlimit="4"/><path stroke-linecap="round" transform="matrix(0.347222, 0, 0, 0.347222, 86.897562, 186.219069)" fill-opacity="1" fill="#171e1c" fill-rule="nonzero" stroke-linejoin="round" d="M -12.51873 -47.723424 C -12.51873 -47.723424 -26.907481 -47.723424 -26.907481 -47.723424 C -26.907481 -47.723424 12.523773 47.721585 12.523773 47.721585 C 12.523773 47.721585 26.901274 47.721585 26.901274 47.721585 C 26.901274 47.721585 -12.51873 -47.723424 -12.51873 -47.723424 Z M -12.51873 -47.723424 " stroke="#545454" stroke-width="2" stroke-opacity="1" stroke-miterlimit="4"/><path stroke-linecap="round" transform="matrix(0.347222, 0, 0, 0.347222, 95.185414, 135.269434)" fill-opacity="1" fill="#00bf63" fill-rule="nonzero" stroke-linejoin="round" d="M 30.49351 -17.178472 C 30.49351 -17.178472 -47.671497 -17.178472 -47.671497 -17.178472 C -47.671497 -17.178472 -47.671497 17.179031 -47.671497 17.179031 C -47.671497 17.179031 30.49351 17.179031 30.49351 17.179031 C 39.988511 17.179031 47.672261 9.48403 47.672261 0.000279166 C 47.672261 -9.483472 39.988511 -17.178472 30.49351 -17.178472 Z M 30.49351 -17.178472 " stroke="#545454" stroke-width="2" stroke-opacity="1" stroke-miterlimit="4"/><path stroke-linecap="round" transform="matrix(0.347222, 0, 0, 0.347222, 99.706594, 135.26977)" fill-opacity="1" fill="#171e1c" fill-rule="nonzero" stroke-linejoin="round" d="M 17.180011 -0.000688514 C 17.180011 -9.484439 9.48501 -17.17944 0.00125942 -17.17944 C -9.482491 -17.17944 -17.177492 -9.484439 -17.177492 -0.000688514 C -17.177492 9.483062 -9.482491 17.178063 0.00125942 17.178063 C 9.48501 17.178063 17.180011 9.483062 17.180011 -0.000688514 Z M 17.180011 -0.000688514 " stroke="#545454" stroke-width="2" stroke-opacity="1" stroke-miterlimit="4"/><path stroke-linecap="round" transform="matrix(0.347222, 0, 0, 0.347222, 80.052772, 145.1052)" fill-opacity="1" fill="#131635" fill-rule="nonzero" stroke-linejoin="round" d="M 18.478018 0.000773794 C 18.478018 -10.202977 10.209267 -18.471728 0.00551652 -18.471728 C -10.209484 -18.471728 -18.478235 -10.202977 -18.478235 0.000773794 C -18.478235 10.204525 -10.209484 18.473276 0.00551652 18.473276 C 10.209267 18.473276 18.478018 10.204525 18.478018 0.000773794 Z M 18.478018 0.000773794 " stroke="#545454" stroke-width="2" stroke-opacity="1" stroke-miterlimit="4"/><path stroke-linecap="round" transform="matrix(0.347222, 0, 0, 0.347222, 80.052772, 170.291648)" fill-opacity="1" fill="#131635" fill-rule="nonzero" stroke-linejoin="round" d="M 18.478018 0.00380371 C 18.478018 -10.199947 10.209267 -18.479948 0.00551652 -18.479948 C -10.209484 -18.479948 -18.478235 -10.199947 -18.478235 0.00380371 C -18.478235 10.207555 -10.209484 18.476305 0.00551652 18.476305 C 10.209267 18.476305 18.478018 10.207555 18.478018 0.00380371 Z M 18.478018 0.00380371 " stroke="#545454" stroke-width="2" stroke-opacity="1" stroke-miterlimit="4"/><path stroke-linecap="round" transform="matrix(0.347222, 0, 0, 0.347222, 83.570829, 135.26977)" fill-opacity="1" fill="#545454" fill-rule="nonzero" stroke-linejoin="round" d="M 38.383517 -28.328191 C 38.383517 -28.328191 -38.38649 -28.328191 -38.38649 -28.328191 C -44.551491 -28.328191 -49.557741 -23.321941 -49.557741 -17.15694 C -49.557741 -17.15694 -49.557741 17.155563 -49.557741 17.155563 C -49.557741 23.320564 -44.551491 28.326814 -38.38649 28.326814 C -38.38649 28.326814 38.383517 28.326814 38.383517 28.326814 C 44.559768 28.326814 49.554768 23.320564 49.554768 17.155563 C 49.554768 17.155563 49.554768 -17.15694 49.554768 -17.15694 C 49.554768 -23.321941 44.559768 -28.328191 38.383517 -28.328191 Z M 38.383517 -28.328191 " stroke="#545454" stroke-width="2" stroke-opacity="1" stroke-miterlimit="4"/><path stroke-linecap="round" transform="matrix(0.347222, 0, 0, 0.347222, 80.052772, 135.269434)" fill-opacity="1" fill="#171e1c" fill-rule="nonzero" stroke-linejoin="round" d="M 28.254269 28.327782 C 28.254269 28.327782 -28.254486 28.327782 -28.254486 28.327782 C -34.419487 28.327782 -39.425737 23.321531 -39.425737 17.156531 C -39.425737 17.156531 -39.425737 -17.155972 -39.425737 -17.155972 C -39.425737 -23.320973 -34.419487 -28.327223 -28.254486 -28.327223 C -28.254486 -28.327223 28.254269 -28.327223 28.254269 -28.327223 C 34.41927 -28.327223 39.42552 -23.320973 39.42552 -17.155972 C 39.42552 -17.155972 39.42552 17.156531 39.42552 17.156531 C 39.42552 23.321531 34.41927 28.327782 28.254269 28.327782 Z M 28.254269 28.327782 " stroke="#545454" stroke-width="2" stroke-opacity="1" stroke-miterlimit="4"/><path stroke-linecap="round" transform="matrix(0.347222, 0, 0, 0.347222, 80.052772, 124.335402)" fill-opacity="1" fill="#00bf63" fill-rule="nonzero" stroke-linejoin="round" d="M 17.634268 -9.797209 C 17.634268 -9.797209 -17.634485 -9.797209 -17.634485 -9.797209 C -17.634485 -9.797209 -17.634485 9.789042 -17.634485 9.789042 C -17.634485 9.789042 17.634268 9.789042 17.634268 9.789042 C 17.634268 9.789042 17.634268 -9.797209 17.634268 -9.797209 Z M 17.634268 -9.797209 " stroke="#545454" stroke-width="2" stroke-opacity="1" stroke-miterlimit="4"/><path stroke-linecap="round" transform="matrix(0.347222, 0, 0, 0.347222, 77.428814, 135.269434)" fill-opacity="1" fill="#545454" fill-rule="nonzero" stroke-linejoin="round" d="M 25.191269 -15.063472 C 25.191269 -15.063472 -25.186236 -15.063472 -25.186236 -15.063472 C -25.186236 -15.063472 -25.186236 15.064031 -25.186236 15.064031 C -25.186236 15.064031 25.191269 15.064031 25.191269 15.064031 C 25.191269 15.064031 25.191269 -15.063472 25.191269 -15.063472 Z M 25.191269 -15.063472 " stroke="#545454" stroke-width="2" stroke-opacity="1" stroke-miterlimit="4"/><path stroke-linecap="round" transform="matrix(0.347222, 0, 0, 0.347222, 89.680201, 135.269434)" fill-opacity="1" fill="#fefefe" fill-rule="nonzero" stroke-linejoin="round" d="M 4.318521 -15.063472 C 4.318521 -15.063472 -4.321479 -15.063472 -4.321479 -15.063472 C -4.321479 -15.063472 -4.321479 15.064031 -4.321479 15.064031 C -4.321479 15.064031 4.318521 15.064031 4.318521 15.064031 C 4.318521 15.064031 4.318521 -15.063472 4.318521 -15.063472 Z M 4.318521 -15.063472 " stroke="#545454" stroke-width="2" stroke-opacity="1" stroke-miterlimit="4"/><path stroke-linecap="round" transform="matrix(0.347222, 0, 0, 0.347222, 225.148247, 177.75138)" fill-opacity="1" fill="#545454" fill-rule="nonzero" stroke-linejoin="round" d="M 0.000547732 -39.491479 C -13.578204 -39.491479 -24.591955 -28.477728 -24.591955 -14.898977 C -24.591955 -14.898977 -24.591955 14.891026 -24.591955 14.891026 C -24.591955 28.481027 -13.578204 39.494778 0.000547732 39.494778 C 13.579299 39.494778 24.59305 28.481027 24.59305 14.891026 C 24.59305 14.891026 24.59305 -14.898977 24.59305 -14.898977 C 24.59305 -28.477728 13.579299 -39.491479 0.000547732 -39.491479 Z M 0.000547732 -39.491479 " stroke="#545454" stroke-width="2" stroke-opacity="1" stroke-miterlimit="4"/><path stroke-linecap="round" transform="matrix(0.347222, 0, 0, 0.347222, 225.147909, 177.751716)" fill-opacity="1" fill="#131635" fill-rule="nonzero" stroke-linejoin="round" d="M -24.59098 15.137558 C -24.59098 15.137558 24.594025 15.137558 24.594025 15.137558 C 24.594025 15.137558 24.594025 -15.136194 24.594025 -15.136194 C 24.594025 -15.136194 -24.59098 -15.136194 -24.59098 -15.136194 C -24.59098 -15.136194 -24.59098 15.137558 -24.59098 15.137558 Z M -24.59098 15.137558 " stroke="#545454" stroke-width="2" stroke-opacity="1" stroke-miterlimit="4"/><path stroke-linecap="round" transform="matrix(0.347222, 0, 0, 0.347222, 225.148247, 189.485745)" fill-opacity="1" fill="#fefefe" fill-rule="nonzero" stroke-linejoin="round" d="M 5.468048 24.667306 C 5.468048 24.667306 5.468048 -32.853949 5.468048 -32.853949 C 5.468048 -35.868949 3.015548 -38.3102 0.000547732 -38.3102 C -3.014453 -38.3102 -5.466953 -35.868949 -5.466953 -32.853949 C -5.466953 -32.853949 -5.466953 24.667306 -5.466953 24.667306 C -5.466953 24.667306 -32.545705 24.667306 -32.545705 24.667306 C -32.545705 24.667306 -32.545705 38.313558 -32.545705 38.313558 C -32.545705 38.313558 32.546801 38.313558 32.546801 38.313558 C 32.546801 38.313558 32.546801 24.667306 32.546801 24.667306 C 32.546801 24.667306 5.468048 24.667306 5.468048 24.667306 Z M 5.468048 24.667306 " stroke="#545454" stroke-width="2" stroke-opacity="1" stroke-miterlimit="4"/><g clip-path="url(#c3f7937504)"><g clip-path="url(#f51db0dc03)"><g clip-path="url(#86787d7a63)"><path fill="#00bf63" d="M 81.574219 91.957031 C 79.398438 88.539062 78.914062 78.214844 74.199219 77.617188 C 72.082031 77.351562 68.296875 79.636719 68.714844 84.074219 C 68.925781 86.324219 72.546875 88.195312 74.507812 89.828125 C 77.210938 92.082031 75.277344 97.148438 68.488281 95.984375 C 61.695312 94.824219 57.957031 85.839844 61.132812 78.648438 C 65.605469 69.078125 77.972656 65.542969 85.273438 74.210938 C 88.714844 78.296875 87.679688 84.117188 88.894531 86.371094 C 89.789062 88.238281 95.015625 88.84375 93.289062 92.839844 C 90.769531 98.679688 83.109375 94.601562 81.574219 91.957031 Z M 97.742188 94.035156 C 94.59375 95.5625 92.71875 99.539062 98.074219 103.101562 C 100.789062 104.539062 104.859375 102.101562 105.085938 99.15625 C 105.082031 93.378906 100.808594 92.550781 97.742188 94.035156 Z M 90.167969 49.132812 C 84.007812 54.019531 83.132812 63.710938 88.605469 67.898438 C 94.078125 72.085938 98.148438 68.503906 96.800781 65.253906 C 95.828125 62.894531 93.492188 59.554688 94.351562 57.464844 C 96.046875 53.339844 100.460938 53.078125 102.210938 54.300781 C 106.105469 57.023438 101.730469 66.386719 102.066406 70.425781 C 102.195312 73.480469 107.078125 80.652344 112.027344 76.65625 C 115.414062 73.921875 111.066406 70.957031 111.144531 68.886719 C 111.121094 66.324219 114.742188 61.65625 113.597656 56.4375 C 111.167969 45.367188 98.578125 42.742188 90.167969 49.132812 Z M 115.410156 79.785156 C 111.910156 79.671875 108.402344 82.320312 111.484375 87.96875 C 113.21875 90.503906 117.953125 90.238281 119.527344 87.734375 C 122.210938 82.621094 118.8125 79.898438 115.410156 79.785156 Z M 135.816406 33.945312 C 127.957031 34.261719 121.539062 41.574219 123.488281 48.183594 C 125.4375 54.792969 130.835938 54.296875 131.667969 50.878906 C 132.273438 48.398438 132.355469 44.324219 134.28125 43.144531 C 138.082031 40.8125 141.804688 43.207031 142.496094 45.222656 C 144.035156 49.71875 134.980469 54.703125 132.867188 58.160156 C 131.171875 60.703125 130.882812 69.375 137.238281 69.066406 C 141.582031 68.855469 139.824219 63.898438 141.109375 62.273438 C 142.597656 60.1875 148.277344 58.554688 150.429688 53.667969 C 154.996094 43.292969 146.375 33.746094 135.816406 33.945312 Z M 130.128906 77.882812 C 130.035156 80.953125 134.015625 83.53125 136.761719 82.4375 C 141.945312 79.890625 140.808594 75.6875 138.125 73.589844 C 135.367188 71.433594 130.972656 71.503906 130.128906 77.882812 Z M 130.128906 77.882812 " fill-opacity="1" fill-rule="nonzero"/></g></g></g><g clip-path="url(#9002b94688)"><g clip-path="url(#d73d6ffc89)"><g clip-path="url(#57653328c6)"><path fill="#0a1c0a" d="M 63.460938 86.566406 C 63.328125 88.285156 64.230469 89.898438 65.296875 91.199219 C 66.152344 92.242188 67.875 93.761719 69.289062 92.980469 C 69.511719 92.855469 69.59375 92.488281 69.433594 92.289062 C 68.652344 91.3125 67.273438 91.039062 66.417969 90.023438 C 65.488281 88.921875 65.03125 87.515625 64.304688 86.296875 C 64.046875 85.863281 63.492188 86.152344 63.460938 86.566406 Z M 82.359375 82.066406 C 82.796875 82.71875 83.125 83.429688 83.492188 84.125 C 83.78125 84.679688 84.15625 85.386719 84.589844 85.832031 C 84.703125 85.949219 84.945312 85.878906 84.964844 85.714844 C 85.160156 84.15625 84.011719 82.570312 83.007812 81.507812 C 82.667969 81.144531 82.089844 81.664062 82.359375 82.066406 Z M 98.484375 97.433594 C 98.554688 97.730469 98.488281 97.535156 98.832031 97.386719 C 99.1875 97.230469 99.5625 97.171875 99.945312 97.152344 C 100.804688 97.113281 101.519531 97.460938 101.714844 98.332031 C 101.910156 99.203125 103.230469 98.769531 103.035156 97.90625 C 102.671875 96.304688 101.125 95.660156 99.609375 95.785156 C 98.535156 95.875 96.84375 96.484375 97.164062 97.855469 C 97.367188 98.726562 98.6875 98.296875 98.484375 97.433594 Z M 88.546875 57.210938 C 87.285156 59.308594 87.410156 65.324219 90.691406 65.613281 C 91.027344 65.644531 91.222656 65.242188 91.144531 64.964844 C 91.003906 64.464844 90.765625 64.152344 90.445312 63.738281 C 89.902344 63.027344 89.632812 62.164062 89.484375 61.296875 C 89.269531 60.015625 89.46875 58.6875 89.417969 57.398438 C 89.398438 56.917969 88.777344 56.828125 88.546875 57.210938 Z M 107.359375 62.011719 C 107.445312 62.789062 107.40625 63.570312 107.40625 64.351562 C 107.402344 64.980469 107.402344 65.792969 107.582031 66.398438 C 107.625 66.550781 107.867188 66.625 107.96875 66.480469 C 108.863281 65.195312 108.597656 63.269531 108.207031 61.859375 C 108.074219 61.390625 107.308594 61.523438 107.359375 62.011719 Z M 114.480469 83.171875 C 114.449219 83.292969 114.324219 83.324219 114.421875 83.289062 C 114.554688 83.238281 114.707031 83.257812 114.847656 83.261719 C 115.203125 83.269531 115.570312 83.414062 115.890625 83.5625 C 116.652344 83.917969 117.164062 84.546875 116.933594 85.40625 C 116.699219 86.273438 118.054688 86.566406 118.285156 85.707031 C 118.710938 84.121094 117.679688 82.816406 116.265625 82.214844 C 115.304688 81.808594 113.480469 81.511719 113.125 82.871094 C 112.902344 83.738281 114.253906 84.03125 114.480469 83.171875 Z M 129.808594 39.488281 C 128.214844 40.097656 127.179688 41.550781 126.449219 43.046875 C 125.875 44.226562 125.125 46.757812 126.570312 47.59375 C 126.808594 47.734375 127.109375 47.605469 127.238281 47.378906 C 127.511719 46.898438 127.4375 46.40625 127.429688 45.863281 C 127.417969 45.027344 127.683594 44.238281 128.035156 43.488281 C 128.621094 42.253906 129.632812 41.277344 130.359375 40.136719 C 130.574219 39.800781 130.167969 39.351562 129.808594 39.488281 Z M 142.082031 54.53125 C 141.699219 55.199219 141.214844 55.796875 140.753906 56.414062 C 140.371094 56.929688 139.902344 57.578125 139.691406 58.183594 C 139.632812 58.351562 139.832031 58.5 139.984375 58.449219 C 140.570312 58.261719 141.210938 57.644531 141.609375 57.183594 C 142.171875 56.535156 142.554688 55.722656 142.851562 54.925781 C 143.042969 54.414062 142.367188 54.035156 142.082031 54.53125 Z M 135.296875 75.832031 C 135.457031 75.707031 135.292969 75.839844 135.25 75.832031 C 135.355469 75.847656 135.464844 75.945312 135.546875 76.007812 C 135.824219 76.222656 136.027344 76.503906 136.214844 76.796875 C 136.640625 77.472656 136.804688 78.40625 136.117188 78.96875 C 135.433594 79.523438 136.183594 80.691406 136.878906 80.125 C 138.167969 79.074219 138.1875 77.582031 137.457031 76.179688 C 137.003906 75.3125 135.609375 73.824219 134.539062 74.675781 C 133.847656 75.226562 134.597656 76.390625 135.296875 75.832031 Z M 135.296875 75.832031 " fill-opacity="1" fill-rule="nonzero"/></g></g></g><g clip-path="url(#4ebae91912)"><g clip-path="url(#15a7c1ffe9)"><g clip-path="url(#5d85de4fdb)"><path fill="#1b1b19" d="M 94.074219 90.09375 C 93.480469 88.402344 91.378906 87.640625 90.0625 86.664062 C 88.433594 85.457031 88.804688 81.878906 88.472656 80.085938 C 87.945312 77.234375 86.90625 74.890625 84.90625 72.78125 C 82.003906 69.71875 77.804688 68.300781 73.648438 68.652344 C 67.070312 69.210938 61.3125 74.542969 59.679688 80.816406 C 58.007812 87.246094 61.460938 95.265625 68.335938 96.664062 C 68.339844 96.664062 68.34375 96.664062 68.34375 96.664062 C 71.691406 97.125 76.246094 96.34375 76.378906 92.15625 C 76.429688 90.5625 75.203125 89.464844 74.046875 88.597656 C 71.359375 86.589844 68.199219 84.851562 69.933594 80.988281 C 70.828125 79 73.53125 77.46875 75.472656 78.902344 C 77.246094 80.210938 77.902344 82.988281 78.496094 84.980469 C 79.546875 88.484375 80.011719 92.195312 83.136719 94.480469 C 85.976562 96.554688 90.152344 97.542969 92.871094 94.808594 C 94.0625 93.613281 94.632812 91.683594 94.074219 90.09375 Z M 85.203125 94.121094 C 81.066406 92.105469 80.726562 87.464844 79.5 83.519531 C 78.617188 80.691406 77.058594 76.746094 73.488281 76.921875 C 70.082031 77.085938 67.40625 81.066406 68.054688 84.289062 C 68.597656 86.988281 71.585938 88.484375 73.601562 89.992188 C 74.929688 90.984375 75.445312 92.4375 74.417969 93.890625 C 73.167969 95.648438 70.503906 95.570312 68.636719 95.308594 C 63.101562 94.183594 60.511719 88.53125 60.703125 83.308594 C 60.902344 77.894531 65.066406 73.121094 69.867188 71.035156 C 74.566406 68.988281 79.785156 70.007812 83.550781 73.394531 C 86.1875 75.765625 86.988281 78.9375 87.394531 82.320312 C 87.605469 84.074219 87.617188 86.054688 88.84375 87.441406 C 90.261719 89.039062 93.390625 89.304688 92.832031 92.085938 C 92.066406 95.898438 87.761719 95.371094 85.203125 94.121094 Z M 97.53125 93.375 C 97.503906 93.386719 97.484375 93.402344 97.460938 93.414062 C 97.429688 93.425781 97.394531 93.4375 97.363281 93.453125 C 94.855469 94.757812 93.058594 97.625 94.535156 100.394531 C 96.289062 103.675781 99.554688 105.132812 102.890625 103.351562 C 106.039062 101.675781 106.382812 97.980469 104.800781 95.070312 C 103.375 92.445312 99.96875 92.273438 97.53125 93.375 Z M 102.472656 101.980469 C 99.980469 103.765625 97.394531 102.332031 95.902344 100.015625 C 94.5 97.84375 96.136719 95.679688 98.058594 94.648438 C 99.742188 93.917969 101.625 93.792969 103.074219 95.089844 C 105.210938 97.007812 104.613281 100.449219 102.472656 101.980469 Z M 88.289062 49.910156 C 83.472656 54.746094 82.539062 63.839844 88.144531 68.414062 C 88.152344 68.421875 88.160156 68.425781 88.167969 68.429688 C 90.898438 70.378906 95.296875 71.84375 97.363281 68.199219 C 98.058594 66.976562 97.71875 65.539062 97.15625 64.355469 C 95.609375 61.117188 93.332031 57.765625 97.132812 55.121094 C 99.4375 53.515625 102.570312 54.351562 103.0625 57.199219 C 103.476562 59.585938 102.726562 62.210938 102.226562 64.535156 C 101.460938 68.054688 100.835938 70.945312 102.714844 74.179688 C 104.300781 76.910156 107.230469 79.171875 110.5 78.289062 C 112.078125 77.863281 113.410156 76.574219 113.925781 75.058594 C 114.480469 73.449219 113.113281 71.59375 112.359375 70.304688 C 111.242188 68.398438 112.511719 66.359375 113.214844 64.503906 C 114.050781 62.300781 114.597656 60.070312 114.484375 57.703125 C 114.273438 53.367188 111.445312 49.363281 107.882812 47.097656 C 101.800781 43.230469 93.203125 44.984375 88.289062 49.910156 Z M 112.789062 56.023438 C 113.59375 58.867188 112.800781 61.710938 111.789062 64.382812 C 111.203125 65.929688 110.359375 67.550781 110.476562 69.25 C 110.59375 71.007812 112.308594 72.324219 112.613281 74.0625 C 112.898438 75.722656 110.765625 76.898438 109.410156 77.121094 C 108.171875 77.324219 106.976562 76.679688 106.035156 75.953125 C 102.390625 73.152344 102.585938 69.421875 103.457031 65.390625 C 104.117188 62.335938 105.859375 56.988281 103.277344 54.332031 C 100.789062 51.773438 96.113281 53.0625 94.394531 55.914062 C 92.667969 58.769531 94.078125 61.28125 95.453125 64.003906 C 96.222656 65.527344 96.957031 67.152344 95.394531 68.46875 C 93.515625 70.046875 90.6875 68.542969 89.070312 67.382812 C 84.699219 63.816406 85 57.617188 87.605469 53.078125 C 90.378906 48.246094 96.496094 45.945312 101.851562 46.496094 C 107.265625 47.054688 111.332031 50.890625 112.789062 56.023438 Z M 115.382812 79.09375 C 112.839844 79.070312 110.464844 80.277344 109.742188 82.835938 C 108.839844 86.035156 111.046875 89.703125 114.226562 90.34375 C 117.898438 91.085938 120.566406 88.558594 121.132812 85.105469 C 121.71875 81.519531 118.59375 79.296875 115.382812 79.09375 Z M 119.695312 85.316406 C 119.203125 88.324219 116.351562 89.75 113.566406 88.738281 C 111.476562 87.976562 110.492188 84.683594 111.234375 82.699219 C 111.863281 81.007812 113.816406 80.464844 115.4375 80.480469 C 118.179688 80.652344 120.160156 82.464844 119.695312 85.316406 Z M 137.019531 33.273438 C 129.089844 32.710938 120.6875 40.140625 122.828125 48.394531 C 122.828125 48.402344 122.835938 48.410156 122.835938 48.417969 C 123.820312 51.4375 126.109375 54.742188 129.71875 53.859375 C 133.492188 52.941406 132.554688 47.132812 133.941406 44.480469 C 135.464844 41.570312 140.734375 42.820312 141.835938 45.433594 C 142.695312 47.480469 140.355469 49.777344 139.09375 51.070312 C 136.691406 53.53125 132.964844 55.617188 131.71875 58.972656 C 130.71875 61.675781 130.792969 65.632812 132.757812 67.910156 C 134.734375 70.195312 139.097656 70.703125 140.613281 67.660156 C 141.28125 66.320312 141.089844 64.683594 141.40625 63.253906 C 141.789062 61.507812 145.039062 60.199219 146.371094 59.273438 C 150.285156 56.546875 152.351562 52.464844 152.371094 47.699219 C 152.410156 39.433594 144.621094 33.816406 137.019531 33.273438 Z M 148.578125 55.394531 C 147.121094 57.335938 144.914062 58.597656 142.910156 59.890625 C 141.683594 60.683594 140.503906 61.511719 140.054688 62.953125 C 139.550781 64.5625 140.15625 66.75 138.675781 67.949219 C 136.253906 69.917969 133.421875 67.046875 132.792969 64.898438 C 131.570312 60.710938 133.722656 57.8125 136.648438 55.1875 C 139.042969 53.039062 143.097656 50.226562 143.335938 46.667969 C 143.566406 43.242188 139.648438 40.992188 136.558594 41.574219 C 132.222656 42.390625 131.859375 45.894531 131.210938 49.664062 C 130.933594 51.28125 130.3125 52.578125 128.488281 52.644531 C 126.089844 52.734375 124.75 49.824219 124.148438 47.972656 C 122.59375 41.988281 127.480469 36.804688 132.855469 35.121094 C 138.207031 33.445312 144.496094 35.878906 148.042969 40.007812 C 151.714844 44.285156 151.972656 50.875 148.578125 55.394531 Z M 131.621094 72.832031 C 128.835938 75.53125 128.726562 79.90625 131.917969 82.238281 C 134.902344 84.417969 138.507812 83.113281 140.410156 80.207031 C 142.007812 77.769531 140.601562 74.730469 138.585938 73.074219 C 136.578125 71.585938 133.621094 70.890625 131.621094 72.832031 Z M 139.625 78.484375 C 139.425781 79.585938 138.566406 80.433594 137.710938 81.074219 C 136.234375 82.1875 134.714844 82.179688 133.105469 81.355469 C 130.171875 79.851562 130.464844 76.210938 132.394531 74.003906 C 133.804688 72.390625 136.167969 73 137.660156 74.105469 C 138.988281 75.195312 139.941406 76.714844 139.625 78.484375 Z M 139.625 78.484375 " fill-opacity="1" fill-rule="nonzero"/></g></g></g></svg>